# xmcd
#
# Track frame offsets:
#	150
#	22018
#	38843
#	58333
#	72061
#	86847
#	100384
#	115943
#	130746
#	148927
#	167734
#	185142
#	199010
#	213842
#	227941
#
# Disc length: 3211 seconds
#
# Revision: 1
# Processed by: cddbd v1.5.2PL0 Copyright (c) Steve Scherf et al.
# Submitted via: audiograbber 1.83.01
#
DISCID=e30c890f
DTITLE=Various Artist - Classic Country - 1984-1986 [Disc 2]
DYEAR=2002
DGENRE=Country
TTITLE0=Willie Nelson - City Of New Orleans
TTITLE1=Juice Newton - Hurt
TTITLE2=Redgum - I Was Only 19 (A Walk In The Light Green)
TTITLE3=Johnny Cash and Waylon Jennings - Even Cowgirls Get The Blues
TTITLE4=Lacy J. Dalton - Working Class Man
TTITLE5=Charly McClain and Mickey Gilley - Paradise Tonight
TTITLE6=Nicolette Larson - That's How You Know When Love's Right
TTITLE7=George Jones - Who's Gonna Fill Their Shoes
TTITLE8=Nitty Gritty Dirt Band - Partners, Brothers And Friends
TTITLE9=Michael Martin Murphey - Carolina In The Pines
TTITLE10=Ricky Skaggs - Country Boy
TTITLE11=Dwight Yoakam - Guitars, Cadillacs
TTITLE12=Janie Fricke - Let's Stop Talkin' About It
TTITLE13=Randy Travis - On The Other Hand
TTITLE14=George Strait - Nobody In His Right Mind Would've Left Her
EXTD=
EXTT0=
EXTT1=
EXTT2=
EXTT3=
EXTT4=
EXTT5=
EXTT6=
EXTT7=
EXTT8=
EXTT9=
EXTT10=
EXTT11=
EXTT12=
EXTT13=
EXTT14=
PLAYORDER=
